<svg height="512" viewBox="0 0 512 512" width="512" xmlns="http://www.w3.org/2000/svg"><g id="User_Female" data-name="User Female"><g id="Flat"><path d="m376 320h-240a40.045 40.045 0 0 1 -40-40v-120c0-88.224 71.775-160 160-160s160 71.776 160 160v120a40.045 40.045 0 0 1 -40 40z" fill="#525252"/><path d="m383.95 64.041c.023 1.318.05 2.635.05 3.959 0 121.5-98.5 220-220 220a219.8 219.8 0 0 1 -68-10.728v2.728a40.045 40.045 0 0 0 40 40h240a40.045 40.045 0 0 0 40-40v-120a159.168 159.168 0 0 0 -32.05-95.959z" fill="#3f3f3f"/><path d="m256 424.765-3.27-1.463a184.6 184.6 0 0 1 -29.42-17.224c-20.776-15.038-31.31-30.541-31.31-46.078v-26.861l16-3.557v-41.582h96v41.582l16 3.557v26.861c0 15.537-10.534 31.04-31.31 46.078a184.6 184.6 0 0 1 -29.42 17.222z" fill="#fac7b7"/><path d="m64 480h80v32h-80z" fill="#fac7b7"/><path d="m368 480h80v32h-80z" fill="#fac7b7"/><path d="m384 512h-256v-24h-64v-68.661a72 72 0 0 1 56.381-70.285l87.619-19.471v30.417c0 19.488 32.653 39.591 48.005 47.158 15.937-7.806 48-27.558 48-47.158v-30.417l87.619 19.471a72 72 0 0 1 56.376 70.285v68.661h-64z" fill="#ce93d8"/><path d="m256 312a96.108 96.108 0 0 1 -96-96v-80h192v80a96.108 96.108 0 0 1 -96 96z" fill="#ffdecf"/><path d="m352 144h-192a16.019 16.019 0 0 1 -16-16v-24a8 8 0 0 1 16 0v24h192v-24a8 8 0 0 1 16 0v24a16.019 16.019 0 0 1 -16 16z" fill="#262626"/><path d="m216 264a143.773 143.773 0 0 1 -47.228-7.933 95.993 95.993 0 0 0 183.228-40.067v-48.583a144.054 144.054 0 0 1 -136 96.583z" fill="#ffd3c2"/><path d="m128 512h23.833c-8.038 0-15.984-.389-23.833-1.113z" fill="#c087cc"/><path d="m432.163 374.287a72.245 72.245 0 0 0 -40.544-25.233l-1.031-.229c-37.223 95.501-130.082 163.175-238.755 163.175h232.167v-24h64v-68.661a72.249 72.249 0 0 0 -15.837-45.052z" fill="#c087cc"/><circle cx="200" cy="48" fill="#848484" r="16"/><circle cx="240" cy="64" fill="#848484" r="12"/><circle cx="108" cy="388" fill="#e2b9ea" r="16"/><circle cx="148" cy="404" fill="#e2b9ea" r="12"/><circle cx="192" cy="176" fill="#fff5f2" r="16"/><circle cx="232" cy="192" fill="#fff5f2" r="12"/><g fill="#ba68c8"><path d="m256 440a7.452 7.452 0 0 1 -1.561-.16 7.893 7.893 0 0 1 -1.5-.45 7.986 7.986 0 0 1 -1.379-.74 7.766 7.766 0 0 1 -1.22-.99 8.31 8.31 0 0 1 -.99-1.22 8.032 8.032 0 0 1 -.741-1.38 7.919 7.919 0 0 1 -.449-1.5 7.685 7.685 0 0 1 0-3.12 7.919 7.919 0 0 1 .449-1.5 8.032 8.032 0 0 1 .741-1.38 8.31 8.31 0 0 1 .99-1.22 7.766 7.766 0 0 1 1.22-.99 7.986 7.986 0 0 1 1.379-.74 7.893 7.893 0 0 1 1.5-.45 8.079 8.079 0 0 1 4.621.45 7.914 7.914 0 0 1 1.379.74 7.728 7.728 0 0 1 1.221.99 8.369 8.369 0 0 1 .989 1.22 8.032 8.032 0 0 1 .741 1.38 7.85 7.85 0 0 1 .45 1.5 7.685 7.685 0 0 1 0 3.12 7.85 7.85 0 0 1 -.45 1.5 8.032 8.032 0 0 1 -.741 1.38 8.369 8.369 0 0 1 -.989 1.22 7.728 7.728 0 0 1 -1.221.99 7.8 7.8 0 0 1 -2.879 1.19 7.443 7.443 0 0 1 -1.56.16z"/><path d="m256 472a7.452 7.452 0 0 1 -1.561-.16 7.893 7.893 0 0 1 -1.5-.45 7.986 7.986 0 0 1 -1.379-.74 7.766 7.766 0 0 1 -1.22-.99 8.31 8.31 0 0 1 -.99-1.22 8.032 8.032 0 0 1 -.741-1.38 7.919 7.919 0 0 1 -.449-1.5 7.685 7.685 0 0 1 0-3.12 7.919 7.919 0 0 1 .449-1.5 8.032 8.032 0 0 1 .741-1.38 7.589 7.589 0 0 1 2.21-2.21 7.986 7.986 0 0 1 1.379-.74 7.893 7.893 0 0 1 1.5-.45 8.079 8.079 0 0 1 4.621.45 7.914 7.914 0 0 1 1.379.74 8.331 8.331 0 0 1 1.221.99 8.055 8.055 0 0 1 2.34 5.66 7.443 7.443 0 0 1 -.16 1.56 7.85 7.85 0 0 1 -.45 1.5 8.032 8.032 0 0 1 -.741 1.38 8.369 8.369 0 0 1 -.989 1.22 7.728 7.728 0 0 1 -1.221.99 7.8 7.8 0 0 1 -2.879 1.19 7.443 7.443 0 0 1 -1.56.16z"/><path d="m376 512a8 8 0 0 1 -8-8v-56a8 8 0 0 1 16 0v56a8 8 0 0 1 -8 8z"/><path d="m136 512a8 8 0 0 1 -8-8v-56a8 8 0 0 1 16 0v56a8 8 0 0 1 -8 8z"/></g></g></g></svg>